<svg xmlns="http://www.w3.org/2000/svg" xmlns:xlink="http://www.w3.org/1999/xlink" width="628" zoomAndPan="magnify" viewBox="0 0 470.87997 219.75" height="293" preserveAspectRatio="xMidYMid meet" version="1.0"><defs><g/><clipPath id="f9dd956949"><path d="M 48.042969 14.832031 L 422.417969 14.832031 L 422.417969 215.332031 L 48.042969 215.332031 Z M 48.042969 14.832031 " clip-rule="nonzero"/></clipPath><clipPath id="bb9477d870"><path d="M 65.273438 14.832031 L 405.386719 14.832031 C 409.957031 14.832031 414.339844 16.648438 417.570312 19.878906 C 420.800781 23.109375 422.617188 27.492188 422.617188 32.0625 L 422.617188 198.101562 C 422.617188 202.671875 420.800781 207.054688 417.570312 210.285156 C 414.339844 213.519531 409.957031 215.332031 405.386719 215.332031 L 65.273438 215.332031 C 60.703125 215.332031 56.320312 213.519531 53.089844 210.285156 C 49.859375 207.054688 48.042969 202.671875 48.042969 198.101562 L 48.042969 32.0625 C 48.042969 27.492188 49.859375 23.109375 53.089844 19.878906 C 56.320312 16.648438 60.703125 14.832031 65.273438 14.832031 Z M 65.273438 14.832031 " clip-rule="nonzero"/></clipPath><radialGradient gradientTransform="matrix(1, 0, 0, 1, 48.04266, 14.831137)" gradientUnits="userSpaceOnUse" r="212.430359" cx="187.286924" id="9ffb7a3439" cy="100.251023" fx="187.286924" fy="100.251023"><stop stop-opacity="1" stop-color="rgb(99.964905%, 86.976624%, 34.761047%)" offset="0"/><stop stop-opacity="1" stop-color="rgb(99.905396%, 86.761475%, 34.519958%)" offset="0.015625"/><stop stop-opacity="1" stop-color="rgb(99.855042%, 86.576843%, 34.313965%)" offset="0.0273438"/><stop stop-opacity="1" stop-color="rgb(99.804688%, 86.393738%, 34.107971%)" offset="0.0390625"/><stop stop-opacity="1" stop-color="rgb(99.754333%, 86.209106%, 33.901978%)" offset="0.0507812"/><stop stop-opacity="1" stop-color="rgb(99.703979%, 86.026001%, 33.695984%)" offset="0.0625"/><stop stop-opacity="1" stop-color="rgb(99.653625%, 85.84137%, 33.48999%)" offset="0.0742188"/><stop stop-opacity="1" stop-color="rgb(99.603271%, 85.658264%, 33.282471%)" offset="0.0859375"/><stop stop-opacity="1" stop-color="rgb(99.552917%, 85.473633%, 33.076477%)" offset="0.0976562"/><stop stop-opacity="1" stop-color="rgb(99.502563%, 85.289001%, 32.870483%)" offset="0.109375"/><stop stop-opacity="1" stop-color="rgb(99.452209%, 85.105896%, 32.66449%)" offset="0.121094"/><stop stop-opacity="1" stop-color="rgb(99.401855%, 84.921265%, 32.458496%)" offset="0.132812"/><stop stop-opacity="1" stop-color="rgb(99.351501%, 84.738159%, 32.250977%)" offset="0.144531"/><stop stop-opacity="1" stop-color="rgb(99.301147%, 84.553528%, 32.044983%)" offset="0.15625"/><stop stop-opacity="1" stop-color="rgb(99.250793%, 84.370422%, 31.838989%)" offset="0.167969"/><stop stop-opacity="1" stop-color="rgb(99.200439%, 84.185791%, 31.632996%)" offset="0.179688"/><stop stop-opacity="1" stop-color="rgb(99.150085%, 84.00116%, 31.427002%)" offset="0.191406"/><stop stop-opacity="1" stop-color="rgb(99.099731%, 83.818054%, 31.221008%)" offset="0.203125"/><stop stop-opacity="1" stop-color="rgb(99.049377%, 83.633423%, 31.013489%)" offset="0.214844"/><stop stop-opacity="1" stop-color="rgb(98.999023%, 83.450317%, 30.807495%)" offset="0.226562"/><stop stop-opacity="1" stop-color="rgb(98.948669%, 83.265686%, 30.601501%)" offset="0.238281"/><stop stop-opacity="1" stop-color="rgb(98.898315%, 83.081055%, 30.395508%)" offset="0.25"/><stop stop-opacity="1" stop-color="rgb(98.831177%, 82.836914%, 30.12085%)" offset="0.261719"/><stop stop-opacity="1" stop-color="rgb(98.747253%, 82.530212%, 29.777527%)" offset="0.28125"/><stop stop-opacity="1" stop-color="rgb(98.66333%, 82.223511%, 29.432678%)" offset="0.300781"/><stop stop-opacity="1" stop-color="rgb(98.579407%, 81.916809%, 29.089355%)" offset="0.320312"/><stop stop-opacity="1" stop-color="rgb(98.495483%, 81.610107%, 28.746033%)" offset="0.339844"/><stop stop-opacity="1" stop-color="rgb(98.41156%, 81.303406%, 28.401184%)" offset="0.359375"/><stop stop-opacity="1" stop-color="rgb(98.336792%, 81.027222%, 28.092957%)" offset="0.378906"/><stop stop-opacity="1" stop-color="rgb(98.269653%, 80.781555%, 27.818298%)" offset="0.394531"/><stop stop-opacity="1" stop-color="rgb(98.202515%, 80.535889%, 27.542114%)" offset="0.410156"/><stop stop-opacity="1" stop-color="rgb(98.135376%, 80.291748%, 27.267456%)" offset="0.425781"/><stop stop-opacity="1" stop-color="rgb(98.068237%, 80.046082%, 26.992798%)" offset="0.441406"/><stop stop-opacity="1" stop-color="rgb(98.001099%, 79.800415%, 26.71814%)" offset="0.457031"/><stop stop-opacity="1" stop-color="rgb(97.93396%, 79.554749%, 26.443481%)" offset="0.472656"/><stop stop-opacity="1" stop-color="rgb(97.865295%, 79.310608%, 26.167297%)" offset="0.488281"/><stop stop-opacity="1" stop-color="rgb(97.805786%, 79.095459%, 25.926208%)" offset="0.503906"/><stop stop-opacity="1" stop-color="rgb(97.755432%, 78.910828%, 25.720215%)" offset="0.515625"/><stop stop-opacity="1" stop-color="rgb(97.705078%, 78.727722%, 25.514221%)" offset="0.527344"/><stop stop-opacity="1" stop-color="rgb(97.654724%, 78.543091%, 25.308228%)" offset="0.539062"/><stop stop-opacity="1" stop-color="rgb(97.60437%, 78.359985%, 25.102234%)" offset="0.550781"/><stop stop-opacity="1" stop-color="rgb(97.554016%, 78.175354%, 24.89624%)" offset="0.5625"/><stop stop-opacity="1" stop-color="rgb(97.503662%, 77.992249%, 24.688721%)" offset="0.574219"/><stop stop-opacity="1" stop-color="rgb(97.453308%, 77.807617%, 24.482727%)" offset="0.585938"/><stop stop-opacity="1" stop-color="rgb(97.402954%, 77.622986%, 24.276733%)" offset="0.597656"/><stop stop-opacity="1" stop-color="rgb(97.3526%, 77.43988%, 24.07074%)" offset="0.609375"/><stop stop-opacity="1" stop-color="rgb(97.302246%, 77.255249%, 23.864746%)" offset="0.621094"/><stop stop-opacity="1" stop-color="rgb(97.235107%, 77.009583%, 23.588562%)" offset="0.632812"/><stop stop-opacity="1" stop-color="rgb(97.151184%, 76.702881%, 23.245239%)" offset="0.652344"/><stop stop-opacity="1" stop-color="rgb(97.067261%, 76.396179%, 22.901917%)" offset="0.671875"/><stop stop-opacity="1" stop-color="rgb(96.992493%, 76.121521%, 22.592163%)" offset="0.691406"/><stop stop-opacity="1" stop-color="rgb(96.925354%, 75.875854%, 22.317505%)" offset="0.707031"/><stop stop-opacity="1" stop-color="rgb(96.858215%, 75.630188%, 22.042847%)" offset="0.722656"/><stop stop-opacity="1" stop-color="rgb(96.791077%, 75.384521%, 21.768188%)" offset="0.738281"/><stop stop-opacity="1" stop-color="rgb(96.731567%, 75.170898%, 21.5271%)" offset="0.753906"/><stop stop-opacity="1" stop-color="rgb(96.681213%, 74.986267%, 21.321106%)" offset="0.765625"/><stop stop-opacity="1" stop-color="rgb(96.630859%, 74.803162%, 21.113586%)" offset="0.777344"/><stop stop-opacity="1" stop-color="rgb(96.580505%, 74.61853%, 20.907593%)" offset="0.789062"/><stop stop-opacity="1" stop-color="rgb(96.530151%, 74.433899%, 20.701599%)" offset="0.800781"/><stop stop-opacity="1" stop-color="rgb(96.479797%, 74.250793%, 20.495605%)" offset="0.8125"/><stop stop-opacity="1" stop-color="rgb(96.412659%, 74.005127%, 20.220947%)" offset="0.824219"/><stop stop-opacity="1" stop-color="rgb(96.328735%, 73.698425%, 19.876099%)" offset="0.84375"/><stop stop-opacity="1" stop-color="rgb(96.253967%, 73.422241%, 19.567871%)" offset="0.863281"/><stop stop-opacity="1" stop-color="rgb(96.194458%, 73.208618%, 19.326782%)" offset="0.878906"/><stop stop-opacity="1" stop-color="rgb(96.144104%, 73.023987%, 19.120789%)" offset="0.890625"/><stop stop-opacity="1" stop-color="rgb(96.09375%, 72.839355%, 18.914795%)" offset="0.902344"/><stop stop-opacity="1" stop-color="rgb(96.026611%, 72.593689%, 18.638611%)" offset="0.914062"/><stop stop-opacity="1" stop-color="rgb(95.951843%, 72.319031%, 18.330383%)" offset="0.933594"/><stop stop-opacity="1" stop-color="rgb(95.892334%, 72.103882%, 18.089294%)" offset="0.949219"/><stop stop-opacity="1" stop-color="rgb(95.825195%, 71.858215%, 17.814636%)" offset="0.960938"/><stop stop-opacity="1" stop-color="rgb(95.739746%, 71.551514%, 17.471313%)" offset="0.980469"/><stop stop-opacity="1" stop-color="rgb(95.698547%, 71.398926%, 17.298889%)" offset="1"/></radialGradient><clipPath id="7116853eb6"><path d="M 48.054688 14.832031 L 422.617188 14.832031 L 422.617188 215.601562 L 48.054688 215.601562 Z M 48.054688 14.832031 " clip-rule="nonzero"/></clipPath><clipPath id="8ef1771a22"><path d="M 65.285156 14.832031 L 405.378906 14.832031 C 409.949219 14.832031 414.328125 16.644531 417.5625 19.878906 C 420.792969 23.109375 422.609375 27.492188 422.609375 32.0625 L 422.609375 198.09375 C 422.609375 202.660156 420.792969 207.042969 417.5625 210.277344 C 414.328125 213.507812 409.949219 215.320312 405.378906 215.320312 L 65.285156 215.320312 C 60.714844 215.320312 56.332031 213.507812 53.101562 210.277344 C 49.871094 207.042969 48.054688 202.660156 48.054688 198.09375 L 48.054688 32.0625 C 48.054688 27.492188 49.871094 23.109375 53.101562 19.878906 C 56.332031 16.644531 60.714844 14.832031 65.285156 14.832031 Z M 65.285156 14.832031 " clip-rule="nonzero"/></clipPath><clipPath id="19f5ed8dd7"><path d="M 87 171.097656 L 384 171.097656 L 384 199.566406 L 87 199.566406 Z M 87 171.097656 " clip-rule="nonzero"/></clipPath></defs><g clip-path="url(#f9dd956949)"><g clip-path="url(#bb9477d870)"><path fill="url(#9ffb7a3439)" d="M 48.042969 14.832031 L 48.042969 215.332031 L 422.417969 215.332031 L 422.417969 14.832031 Z M 48.042969 14.832031 " fill-rule="nonzero"/></g></g><g clip-path="url(#7116853eb6)"><g clip-path="url(#8ef1771a22)"><path stroke-linecap="butt" transform="matrix(0.749148, 0, 0, 0.749148, 48.054854, 14.831149)" fill="none" stroke-linejoin="miter" d="M 22.999873 0.00117774 L 476.974105 0.00117774 C 483.074788 0.00117774 488.919972 2.420594 493.237379 6.738 C 497.549571 11.050192 499.974201 16.900591 499.974201 23.001274 L 499.974201 244.628131 C 499.974201 250.7236 497.549571 256.573998 493.237379 260.891405 C 488.919972 265.203597 483.074788 267.623013 476.974105 267.623013 L 22.999873 267.623013 C 16.899191 267.623013 11.048792 265.203597 6.7366 260.891405 C 2.424408 256.573998 -0.00022239 250.7236 -0.00022239 244.628131 L -0.00022239 23.001274 C -0.00022239 16.900591 2.424408 11.050192 6.7366 6.738 C 11.048792 2.420594 16.899191 0.00117774 22.999873 0.00117774 Z M 22.999873 0.00117774 " stroke="#000000" stroke-width="8" stroke-opacity="1" stroke-miterlimit="4"/></g></g><g clip-path="url(#19f5ed8dd7)"><path fill="#000000" d="M 382.230469 185.734375 C 363.78125 181.390625 345.089844 178.105469 326.28125 175.851562 C 307.113281 173.546875 287.84375 172.265625 268.550781 171.675781 C 249.671875 171.09375 230.777344 171.242188 211.902344 171.871094 C 192.742188 172.511719 173.597656 173.644531 154.476562 175.027344 C 135.503906 176.402344 116.539062 178.011719 97.613281 179.921875 C 94.832031 180.199219 92.050781 180.46875 89.269531 180.738281 C 86.628906 180.996094 87.191406 185.074219 89.820312 184.863281 C 109.0625 183.324219 128.304688 181.777344 147.558594 180.347656 C 166.507812 178.9375 185.476562 177.761719 204.46875 177.058594 C 223.332031 176.355469 242.214844 176.097656 261.089844 176.507812 C 280.128906 176.921875 299.15625 178.070312 318.09375 180.121094 C 327.035156 181.089844 335.957031 182.261719 344.84375 183.65625 C 326.878906 182.792969 308.90625 182.085938 290.921875 181.742188 C 260.855469 181.164062 230.71875 181.625 200.738281 184.175781 C 183.835938 185.609375 166.984375 187.734375 150.261719 190.628906 C 147.714844 191.070312 148.398438 195.417969 150.96875 195.195312 C 176.511719 193.015625 202.148438 191.933594 227.78125 191.910156 C 253.269531 191.886719 278.738281 192.914062 304.144531 194.96875 C 311.308594 195.546875 318.46875 196.1875 325.617188 196.921875 C 329.097656 197.277344 332.574219 197.640625 336.046875 198.027344 C 339.953125 198.460938 343.886719 198.71875 347.78125 199.214844 C 350.753906 199.59375 351.648438 194.945312 348.664062 194.566406 C 345.160156 194.117188 341.679688 193.476562 338.167969 193.0625 C 334.980469 192.679688 331.792969 192.320312 328.601562 191.972656 C 322.214844 191.28125 315.8125 190.683594 309.40625 190.140625 C 296.8125 189.074219 284.1875 188.300781 271.558594 187.785156 C 258.609375 187.257812 245.65625 186.996094 232.710938 186.992188 C 235.578125 186.882812 238.453125 186.789062 241.324219 186.710938 C 271.136719 185.878906 300.984375 186.722656 330.765625 188.058594 C 347.5625 188.8125 364.351562 189.808594 381.140625 190.742188 C 382.40625 190.8125 383.582031 189.996094 383.835938 188.714844 C 384.066406 187.574219 383.480469 186.027344 382.230469 185.734375 " fill-opacity="1" fill-rule="nonzero"/></g><g fill="#000000" fill-opacity="1"><g transform="translate(83.745797, 149.921353)"><g><path d="M 3.90625 0 L 3.90625 -88.375 L 30.859375 -88.375 L 38.265625 -34.46875 L 45.671875 -88.375 L 72.828125 -88.375 L 72.828125 0 L 56.6875 0 L 56.6875 -63.671875 L 46.5 0 L 30.65625 0 L 19.859375 -63.671875 L 19.859375 0 Z M 3.90625 0 "/></g></g></g><g fill="#000000" fill-opacity="1"><g transform="translate(160.48479, 149.921353)"><g><path d="M 2.15625 1.125 L 10.796875 1.125 C 12.035156 1.125 12.65625 0.613281 12.65625 -0.40625 C 12.65625 -0.882812 12.617188 -1.265625 12.546875 -1.546875 L 0.828125 -75.296875 L 18 -75.296875 L 21.390625 -38.578125 L 23.046875 -19.859375 L 25 -38.578125 L 29.015625 -75.296875 L 46.296875 -75.296875 L 32.296875 3.90625 C 31.816406 6.851562 30.835938 9.03125 29.359375 10.4375 C 27.890625 11.84375 25.578125 12.546875 22.421875 12.546875 L 2.15625 12.546875 Z M 2.15625 1.125 "/></g></g></g><g fill="#000000" fill-opacity="1"><g transform="translate(207.90661, 149.921353)"><g><path d="M 3.90625 0 L 3.90625 -88.375 L 30.859375 -88.375 L 38.265625 -34.46875 L 45.671875 -88.375 L 72.828125 -88.375 L 72.828125 0 L 56.6875 0 L 56.6875 -63.671875 L 46.5 0 L 30.65625 0 L 19.859375 -63.671875 L 19.859375 0 Z M 3.90625 0 "/></g></g></g><g fill="#000000" fill-opacity="1"><g transform="translate(284.645604, 149.921353)"><g><path d="M 3.90625 -88.375 L 28.296875 -88.375 C 34.597656 -88.375 39.328125 -86.625 42.484375 -83.125 C 45.640625 -79.625 47.253906 -74.445312 47.328125 -67.59375 L 47.53125 -26.234375 C 47.59375 -17.523438 46.082031 -10.972656 43 -6.578125 C 39.914062 -2.191406 34.804688 0 27.671875 0 L 3.90625 0 Z M 24.796875 -15.640625 C 28.015625 -15.640625 29.625 -17.21875 29.625 -20.375 L 29.625 -65.9375 C 29.625 -67.925781 29.46875 -69.414062 29.15625 -70.40625 C 28.851562 -71.40625 28.289062 -72.078125 27.46875 -72.421875 C 26.644531 -72.765625 25.375 -72.9375 23.65625 -72.9375 L 21.703125 -72.9375 L 21.703125 -15.640625 Z M 24.796875 -15.640625 "/></g></g></g><g fill="#000000" fill-opacity="1"><g transform="translate(335.359165, 149.921353)"><g><path d="M 32.71875 0.828125 C 27.78125 0.828125 24.25 -2.125 22.125 -8.03125 L 22.125 0 L 3.59375 0 L 3.59375 -88.890625 L 22.125 -88.890625 L 22.125 -71.703125 C 25 -74.648438 28.359375 -76.125 32.203125 -76.125 C 38.023438 -76.125 42.207031 -74.390625 44.75 -70.921875 C 47.289062 -67.460938 48.5625 -62.476562 48.5625 -55.96875 L 48.5625 -19.65625 C 48.5625 -13.476562 47.253906 -8.519531 44.640625 -4.78125 C 42.035156 -1.039062 38.0625 0.828125 32.71875 0.828125 Z M 26.640625 -13.171875 C 27.878906 -13.171875 28.753906 -13.5625 29.265625 -14.34375 C 29.785156 -15.132812 30.09375 -16.128906 30.1875 -17.328125 C 30.289062 -18.535156 30.34375 -20.40625 30.34375 -22.9375 L 30.34375 -54.3125 C 30.34375 -56.988281 30.101562 -58.976562 29.625 -60.28125 C 29.144531 -61.582031 28.117188 -62.234375 26.546875 -62.234375 C 24.828125 -62.234375 23.660156 -61.582031 23.046875 -60.28125 C 22.429688 -58.976562 22.125 -57.0625 22.125 -54.53125 L 22.125 -22.9375 C 22.125 -19.644531 22.394531 -17.191406 22.9375 -15.578125 C 23.488281 -13.972656 24.722656 -13.171875 26.640625 -13.171875 Z M 26.640625 -13.171875 "/></g></g></g></svg>